<svg  fill="#b7924b" height="511pt" viewBox="0 -2 511.998 511" width="511pt" xmlns="http://www.w3.org/2000/svg"><path d="m493.277344 354.894531h-5.171875c-1.191407-3.441406-2.574219-6.816406-4.136719-10.105469l3.625-3.625c3.527344-3.523437 5.46875-8.21875 5.46875-13.222656 0-5-1.941406-9.695312-5.46875-13.21875l-20.972656-20.964844c-3.523438-3.523437-8.222656-5.460937-13.234375-5.460937s-9.710938 1.9375-13.234375 5.460937l-3.628906 3.628907c-3.289063-1.566407-6.667969-2.945313-10.113282-4.140625v-5.191406c0-10.308594-8.386718-18.691407-18.691406-18.691407h-20.726562l-2.46875-8.289062c-.019532-.054688-.035157-.109375-.054688-.164063-7.605469-23.527344-26.296875-28.871094-44.375-34.039062-2.425781-.691406-4.933594-1.410156-7.4375-2.171875l-32.742188-9.9375c-.046874-.015625-.09375-.027344-.140624-.042969-.078126-.023438-.160157-.050781-.242188-.074219l-7.003906-2.125c14.066406-12.964843 25.046875-29.339843 30.386718-45.78125 5.847657-1.261719 11.730469-4.488281 16.492188-9.1875 6.015625-5.945312 9.46875-13.449219 9.46875-20.585937v-8.867188c0-7.597656-5.136719-14-12.109375-15.945312.140625-.882813.234375-1.777344.234375-2.699219v-9.09375c0-7.316406-4.589844-13.566406-11.027344-16.054687-5.078125-31.058594-25.320312-57.292969-54.171875-70.035157-3.183593-8.054687-11.050781-13.769531-20.238281-13.769531h-34.289062c-9.117188 0-16.933594 5.644531-20.152344 13.617188-29.105469 12.746093-49.5 39.148437-54.519532 70.429687-6.125 2.640625-10.421874 8.730469-10.421874 15.8125v9.09375c0 1.023437.101562 2.019531.273437 2.992187-6.480469 2.242188-11.15625 8.402344-11.15625 15.652344v8.867188c0 7.136718 3.449219 14.640625 9.46875 20.585937 4.761719 4.703125 10.648437 7.929688 16.5 9.1875 5.339844 16.457031 16.3125 32.824219 30.363281 45.789063l-44.367187 13.472656c-.003907.003906-.007813.003906-.011719.003906-.019531.007813-.042969.011719-.0625.019532-2.476562.75-4.871094 1.429687-7.1875 2.089843-17.484375 4.972657-32.582031 9.265625-40.214844 32.789063-.015625.046875-.03125.09375-.042968.140625l-31.292969 103.226562c-.703125 2.328125-1.320313 4.429688-1.863281 6.347657h-9.660157c-23.667969 0-42.925781 19.25-42.925781 42.941406 0 23.664062 19.257812 42.917968 42.925781 42.917968l127.695313.027344h.003906c4.175781 0 7.558594-3.382812 7.558594-7.558594 0-4.171874-3.382813-7.558593-7.554688-7.558593l-127.703125-.027344c-15.335937 0-27.8125-12.46875-27.8125-27.828125 0-15.328125 12.476563-27.800781 27.8125-27.800781h15.480469c.007812 0 .019531.003906.027344.003906.003906 0 .011718-.003906.015625-.003906h215.34375v17.515625c0 10.324218 8.386719 18.722656 18.695312 18.722656h7.332031c1.054688 2.894531 2.242188 5.738281 3.558594 8.511719l-5.230468 5.207031c-1.671876 1.683594-2.941407 3.617188-3.84375 5.671875h-89.046876c-4.175781 0-7.558593 3.382813-7.558593 7.558594s3.382812 7.558593 7.558593 7.558593h89.050782c.90625 2.054688 2.179687 3.984376 3.859375 5.664063l20.972656 20.964844c3.523437 3.523437 8.226563 5.460937 13.234375 5.460937 5.011719 0 9.710938-1.9375 13.234375-5.460937l5.214844-5.210938c2.773437 1.316407 5.621093 2.511719 8.527343 3.574219v7.3125c0 10.320312 8.386719 18.71875 18.695313 18.71875h29.671875c10.304688 0 18.691406-8.398438 18.691406-18.71875v-6.746094c3.078125-1.058594 6.101563-2.269531 9.042969-3.625l4.699219 4.695313c3.523437 3.523437 8.222656 5.460937 13.234375 5.460937s9.710937-1.9375 13.234375-5.460937l20.972656-20.964844c7.273438-7.273437 7.285156-19.140625 0-26.472656l-4.140625-4.136719c1.527344-3.113281 2.890625-6.304688 4.078125-9.5625h5.742188c10.324218 0 18.722656-8.398438 18.722656-18.71875v-29.636719c.003906-10.324219-8.394532-18.71875-18.71875-18.71875zm-166.792969-209.152343.203125-19.097657h5.648438c.757812 0 1.425781.675781 1.425781 1.449219v8.871094c0 3.074218-1.859375 6.75-4.976563 9.828125-.757812.746093-1.5625 1.417969-2.386718 2.027343.054687-1.03125.085937-2.058593.085937-3.078124zm-185.097656 1.050781c-3.117188-3.074219-4.980469-6.75-4.980469-9.828125v-8.867188c0-.773437.667969-1.453125 1.429688-1.453125h5.644531l.203125 19.015625c0 1.050782.03125 2.101563.089844 3.160156-.828126-.609374-1.632813-1.28125-2.386719-2.027343zm200.402343 96.320312c15.316407 4.632813 23.894532 8.90625 28.273438 22.367188l1.507812 5.058593c-7.121093 2.640626-12.21875 9.484376-12.21875 17.515626v5.753906c-3.265624 1.199218-6.472656 2.566406-9.59375 4.09375l-4.148437-4.144532c-1.152344-1.15625-2.445313-2.121093-3.820313-2.921874zm-163.097656 5.082031c13.050782 11.269532 33.089844 18.261719 55.613282 18.261719 22.339843 0 42.539062-7.195312 55.667968-18.566406v45.886719c0 .078125-.078125.117187-.09375.121094h-111.066406c-.046875 0-.121094-.074219-.121094-.121094zm2.179688-20.859374 11.265625-3.421876c6.179687 4.078126 12.703125 7.476563 19.421875 9.972657 8.476562 3.140625 16.011718 4.710937 23.535156 4.710937 7.570312 0 15.128906-1.589844 23.617188-4.773437 6.675781-2.484375 13.152343-5.863281 19.300781-9.914063l9.929687 3.011719c-7.160156 14.109375-28.984375 24.421875-53.636718 24.421875-24.3125 0-46.023438-10.128906-53.433594-24.007812zm29.789062-205.113282c0-3.644531 2.96875-6.609375 6.613282-6.609375h34.289062c3.664062 0 6.644531 2.964844 6.644531 6.609375v24.507813c0 3.640625-2.980469 6.605469-6.644531 6.605469h-34.289062c-3.644532 0-6.613282-2.964844-6.613282-6.605469zm-15.113281 9.597656v14.910157c0 11.976562 9.746094 21.722656 21.726563 21.722656h34.292968c11.996094 0 21.753906-9.746094 21.753906-21.722656v-14.753907c19.023438 11.019532 32.484376 29.527344 37.066407 51.164063h-152.164063c4.597656-21.734375 18.15625-40.304687 37.324219-51.320313zm-44.585937 79.707032c-.003907 0-.003907 0-.003907 0h-1.558593c-1.144532 0-2.109376-.949219-2.109376-2.074219v-9.09375c0-1.121094.984376-2.101563 2.109376-2.101563h.007812.011719 169.773437.011719.011719.59375c1.125 0 2.078125.960938 2.078125 2.101563v9.09375c0 1.125-.953125 2.074219-2.082031 2.074219h-.59375s0 0-.003907 0l-82.828125.03125-85.410156-.03125c-.003906 0-.007812 0-.007812 0zm7.839843 34.050781-.203125-18.929687 77.773438.023437h.007812l75.195313-.023437-.203125 19.011718c0 27.914063-27.074219 62.496094-57.953125 74.007813-13.480469 5.054687-23.0625 5.066406-36.601563.046875-30.90625-11.484375-58.015625-46.09375-58.015625-74.136719zm115.253907 225.039063h-131.035157l.019531-34.566407c.003907-4.171875-3.378906-7.558593-7.550781-7.5625-.003906 0-.003906 0-.007812 0-4.167969 0-7.554688 3.378907-7.554688 7.550781l-.023437 34.578126h-59.578125c.191406-.640626.390625-1.296876.59375-1.980469l31.269531-103.136719c4.90625-15.0625 12.683594-17.90625 27.707031-22.210938l-.023437 58.160157c-.003906 4.175781 3.378906 7.5625 7.554687 7.5625 4.171875 0 7.558594-3.382813 7.558594-7.554688l.027344-62.621093 20.566406-6.246094v61.1875c0 8.402344 6.835937 15.234375 15.238281 15.234375h111.066406c8.382813 0 15.207032-6.835938 15.207032-15.234375v-61.648438l21.585937 6.550782v50.5c-2.816406.890624-5.394531 2.4375-7.535156 4.578124l-20.972656 20.964844c-3.523438 3.523438-5.464844 8.21875-5.464844 13.222656 0 5 1.941406 9.695313 5.464844 13.21875l4.71875 4.71875c-1.359375 2.949219-2.574219 5.960938-3.640625 9.011719h-6.757813c-9.289062 0-16.996093 6.824219-18.433593 15.722657zm222.832031 32.628906c0 1.988281-1.621094 3.605468-3.609375 3.605468h-11.195313c-3.335937 0-6.277343 2.1875-7.238281 5.386719-1.769531 5.898438-4.207031 11.613281-7.242188 16.976563-1.675781 2.957031-1.171874 6.667968 1.230469 9.070312l8.0625 8.054688c1.40625 1.417968 1.414063 3.710937.015625 5.109375l-20.972656 20.964843c-.902344.902344-1.984375 1.035157-2.546875 1.035157-.566406 0-1.648437-.132813-2.550781-1.035157l-8.53125-8.527343c-2.351563-2.351563-5.960938-2.890625-8.894532-1.328125-5.238281 2.789062-10.824218 5.027344-16.601562 6.648437-3.261719.917969-5.511719 3.890625-5.511719 7.277344v12.292969c0 1.957031-1.644531 3.605468-3.582031 3.605468h-29.671875c-1.941406 0-3.582031-1.648437-3.582031-3.605468v-12.746094c0-3.328125-2.175782-6.265625-5.355469-7.230469-5.628906-1.710937-11.046875-3.988281-16.109375-6.765625-1.140625-.625-2.390625-.929687-3.632812-.929687-1.953126 0-3.890626.757812-5.34375 2.210937l-9.097657 9.09375c-.902343.90625-1.984375 1.039063-2.550781 1.039063s-1.644531-.132813-2.550781-1.035157l-20.972657-20.96875c-.640624-.644531-.972656-1.476562-1.023437-2.324218 0-.066406.011719-.136719.011719-.203125 0-.074219-.011719-.148438-.015625-.222657.050781-.851562.382812-1.6875 1.023437-2.332031l9.097656-9.0625c2.382813-2.375 2.910157-6.039062 1.289063-8.988281-2.777344-5.0625-5.039063-10.472656-6.726563-16.082031-.960937-3.195313-3.902343-5.378907-7.238281-5.378907h-12.78125c-1.941406 0-3.582031-1.652343-3.582031-3.605468v-29.632813c0-1.957031 1.640625-3.605469 3.582031-3.605469h12.300781c3.382813 0 6.351563-2.246093 7.273438-5.5 1.609375-5.703124 3.855469-11.28125 6.679688-16.578124 1.5625-2.9375 1.023437-6.546876-1.328126-8.898438l-8.558593-8.554688c-.902344-.902343-1.039063-1.976562-1.039063-2.535156 0-.554687.136719-1.625 1.039063-2.527344l20.972656-20.964843c.902344-.90625 1.984375-1.039063 2.546875-1.039063.566406 0 1.648438.132813 2.550781 1.035156l8.078125 8.074219c2.398438 2.398438 6.097656 2.90625 9.050782 1.242188 5.386718-3.03125 11.125-5.484375 17.054687-7.289063 3.183594-.964844 5.355469-3.902344 5.355469-7.230468v-11.1875c0-1.941407 1.640625-3.578126 3.582031-3.578126h3.289063c.007812 0 .015624.003907.023437.003907s.019531-.003907.027344-.003907h26.332031c1.9375 0 3.582031 1.636719 3.582031 3.578126v10.734374c0 3.382813 2.246094 6.355469 5.5 7.273438 6.09375 1.722656 12 4.136719 17.558594 7.179688 2.945313 1.609374 6.597656 1.085937 8.96875-1.285157l7.511719-7.507812c.902344-.902344 1.984375-1.039063 2.550781-1.039063.5625 0 1.644531.136719 2.546875 1.039063l20.972656 20.964843c.902344.902344 1.039063 1.972657 1.039063 2.53125 0 .558594-.136719 1.628907-1.039063 2.53125l-7.507812 7.507813c-2.375 2.371094-2.898438 6.027344-1.289063 8.972656 3.042969 5.554688 5.457031 11.460938 7.183594 17.550781.917969 3.253907 3.886719 5.503907 7.269531 5.503907h10.714844c1.988281 0 3.609375 1.617187 3.609375 3.601562v29.632813zm0 0"/><path d="m392.898438 352.738281c-19.699219 0-35.726563 16.011719-35.726563 35.691407 0 19.679687 16.023437 35.691406 35.726563 35.691406 19.683593 0 35.699218-16.011719 35.699218-35.691406 0-19.679688-16.019531-35.691407-35.699218-35.691407zm0 56.265625c-11.367188 0-20.613282-9.226562-20.613282-20.574218 0-11.34375 9.246094-20.574219 20.613282-20.574219 11.347656 0 20.582031 9.230469 20.582031 20.574219s-9.234375 20.574218-20.582031 20.574218zm0 0"/><path d="m392.898438 324.890625c-35.046876 0-63.558594 28.503906-63.558594 63.539063 0 35.039062 28.511718 63.542968 63.558594 63.542968 35.042968 0 63.554687-28.503906 63.554687-63.542968 0-35.035157-28.511719-63.539063-63.554687-63.539063zm0 111.964844c-26.710938 0-48.445313-21.722657-48.445313-48.425781 0-26.699219 21.734375-48.425782 48.445313-48.425782 26.710937 0 48.441406 21.726563 48.441406 48.425782 0 26.703124-21.734375 48.425781-48.441406 48.425781zm0 0"/></svg>