<svg  fill="#b7924b" height="512pt" viewBox="-57 0 512 512" width="512pt" xmlns="http://www.w3.org/2000/svg"><path d="m364.332031 423.523438h13.308594c5.285156 0 10.179687-2.78125 12.886719-7.320313 2.707031-4.539063 2.824218-10.167969.3125-14.816406-13.136719-24.28125-38.429688-39.367188-66.011719-39.367188-23.675781 0-45.9375 11.304688-60 30h-136.945313c-14.015624-18.933593-35.878906-30-60.066406-30-27.585937 0-52.878906 15.085938-66.011718 39.367188-2.511719 4.648437-2.394532 10.277343.3125 14.816406 2.703124 4.539063 7.601562 7.320313 12.882812 7.320313h13.3125c8.273438 0 15 6.730468 15 15 0 8.273437-6.726562 15-15 15h-11.574219c-5.4375 0-10.453125 2.945312-13.101562 7.699218-2.648438 4.75-2.519531 10.5625.34375 15.1875 13.816406 22.359375 37.546875 35.59375 63.683593 35.589844.4375 0 .878907-.003906 1.320313-.011719 23.738281-.402343 45.171875-11.445312 58.917969-29.960937h136.902344c13.851562 18.554687 35.292968 29.589844 58.921874 29.933594 26.667969.402343 50.9375-12.898438 64.9375-35.546876 2.859376-4.628906 2.988282-10.441406.339844-15.191406-2.648437-4.753906-7.660156-7.699218-13.101562-7.699218h-11.570313c-8.273437 0-15.003906-6.726563-15.003906-15 0-8.269532 6.730469-15 15.003906-15zm-21.265625 54.652343c-5.824218 2.558594-12.214844 3.894531-18.902344 3.785157-16-.230469-30.328124-8.625-38.324218-22.449219-2.679688-4.632813-7.628906-7.488281-12.984375-7.488281h-153.039063c-5.378906 0-10.347656 2.882812-13.019531 7.550781-7.871094 13.761719-22.199219 22.140625-38.324219 22.417969-6.804687.097656-13.21875-1.183594-19.03125-3.742188 14.195313-7.582031 23.875-22.542969 23.875-39.726562 0-18.335938-11.023437-34.148438-26.792968-41.152344 6.429687-3.453125 13.714843-5.351563 21.292968-5.351563 16.347656 0 30.910156 8.394531 38.953125 22.449219 2.671875 4.671875 7.640625 7.554688 13.019531 7.554688h153.066407c5.355469 0 10.304687-2.855469 12.984375-7.488282 8.03125-13.886718 22.972656-22.515625 38.988281-22.515625 7.574219 0 14.859375 1.898438 21.292969 5.351563-15.769532 7.003906-26.792969 22.816406-26.792969 41.152344 0 17.128906 9.617187 32.050781 23.738281 39.652343zm0 0"/><path d="m383.257812 207.011719h-15.058593v-50.628907c0-60.042968-48.6875-108.929687-108.652344-109.257812-6.730469-27.03125-31.210937-47.125-60.296875-47.125s-53.570312 20.09375-60.296875 47.128906c-59.96875.324219-108.652344 49.210938-108.652344 109.253906v50.628907h-15.0625c-8.285156 0-15 6.714843-15 15v40.003906c0 5.988281 3.5625 11.402344 9.0625 13.773437 60.832031 26.21875 123.101563 39.753907 185.082031 40.222657 1.113282.007812 2.230469.015625 3.347657.015625 63.109375 0 127.453125-13.511719 191.308593-40.171875 5.582032-2.332031 9.21875-7.789063 9.21875-13.839844v-40.003906c0-8.285157-6.714843-15-15-15zm-322.957031-50.628907c0-42.886718 34.246094-77.902343 76.820313-79.195312v42.253906c0 8.285156 6.714844 15 15 15s15-6.714844 15-15c0 0 .003906-56.917968.003906-57.316406 0-17.710938 14.410156-32.125 32.125-32.125 17.710938 0 32.125 14.410156 32.125 32.125v57.316406c0 8.285156 6.714844 15 15 15s15-6.714844 15-15v-42.253906c42.578125 1.292969 76.820312 36.308594 76.820312 79.195312v50.628907h-277.894531zm307.957031 95.539063c-113.941406 45.148437-227.554687 45.1875-338.019531.117187v-15.027343h338.019531zm0 0"/></svg>